<svg xmlns="http://www.w3.org/2000/svg" width="1900" height="1000" viewBox="0 0 1900 1000">
<defs><linearGradient id="sky" x1="0" y1="0" x2="0" y2="1"><stop offset="0" stop-color="#cfd8dc"/><stop offset="1" stop-color="#eef0ea"/></linearGradient><pattern id="brick" width="18" height="10" patternUnits="userSpaceOnUse"><rect width="18" height="10" fill="#b8ae9c"/><rect x="0.8" y="0.8" width="16.4" height="3.6" fill="#9a4a2c"/><rect x="-8.2" y="5.8" width="16.4" height="3.6" fill="#a5552f"/><rect x="9.8" y="5.8" width="16.4" height="3.6" fill="#8a3f26"/></pattern></defs>
<rect width="1900" height="1000" fill="url(#sky)"/>
<text x="40" y="56" font-family="Arial" font-size="36" fill="#2d2a26" font-weight="bold" text-anchor="start">Склад продукции — референс трёх состояний</text>
<text x="40" y="90" font-family="Arial" font-size="19" fill="#2d2a26" font-weight="normal" text-anchor="start">«После бури»: от разрушенного сарая к логистическому комплексу. Вид спереди (к двору, +Z в Godot). 1 м = 70 px.</text>
<rect x="40" y="640" width="580" height="16" fill="#6f8f3a"/>
<rect x="660" y="640" width="580" height="16" fill="#6f8f3a"/>
<rect x="1250" y="640" width="580" height="16" fill="#6f8f3a"/>
<text x="330" y="140" font-family="Arial" font-size="22" fill="#2d2a26" font-weight="bold" text-anchor="middle">1. Разрушенный склад — стадия 0</text>
<polygon points="162.0,640.0 498.0,640.0 498.0,624.6 162.0,624.6" fill="#9a968e" stroke="#2a2622" stroke-width="2" stroke-linejoin="round" />
<polyline points="351.0,624.6 337.0,640.0" fill="none" stroke="#2a2622" stroke-width="2" stroke-linecap="round"/>
<polygon points="169.0,624.6 182.3,624.6 182.3,469.7 176.0,461.9 169.0,467.5" fill="#7d7264" stroke="#2a2622" stroke-width="1.5" stroke-linejoin="round" />
<polygon points="183.0,624.6 196.3,624.6 196.3,469.6 190.0,461.5 183.0,467.1" fill="#7d7264" stroke="#2a2622" stroke-width="1.5" stroke-linejoin="round" />
<polygon points="197.0,624.6 210.3,624.6 210.3,487.7 204.0,478.2 197.0,483.8" fill="#7d7264" stroke="#2a2622" stroke-width="1.5" stroke-linejoin="round" />
<polygon points="211.0,624.6 224.3,624.6 224.3,507.6 218.0,498.5 211.0,504.1" fill="#3f362e" stroke="#2a2622" stroke-width="1.5" stroke-linejoin="round" />
<polygon points="225.0,624.6 238.3,624.6 238.3,506.0 232.0,500.0 225.0,505.6" fill="#7d7264" stroke="#2a2622" stroke-width="1.5" stroke-linejoin="round" />
<polygon points="239.0,624.6 252.3,624.6 252.3,505.1 246.0,500.8 239.0,506.4" fill="#7d7264" stroke="#2a2622" stroke-width="1.5" stroke-linejoin="round" />
<polygon points="253.0,624.6 266.3,624.6 266.3,509.7 260.0,501.7 253.0,507.3" fill="#7d7264" stroke="#2a2622" stroke-width="1.5" stroke-linejoin="round" />
<polygon points="267.0,624.6 280.3,624.6 280.3,517.6 274.0,516.9 267.0,522.5" fill="#3f362e" stroke="#2a2622" stroke-width="1.5" stroke-linejoin="round" />
<polygon points="281.0,624.6 294.3,624.6 294.3,552.2 288.0,552.2 281.0,557.8" fill="#7d7264" stroke="#2a2622" stroke-width="1.5" stroke-linejoin="round" />
<polygon points="295.0,624.6 308.3,624.6 308.3,559.7 302.0,557.4 295.0,563.0" fill="#7d7264" stroke="#2a2622" stroke-width="1.5" stroke-linejoin="round" />
<polygon points="309.0,624.6 322.3,624.6 322.3,541.3 316.0,538.3 309.0,543.9" fill="#7d7264" stroke="#2a2622" stroke-width="1.5" stroke-linejoin="round" />
<polygon points="323.0,624.6 336.3,624.6 336.3,568.0 330.0,560.9 323.0,566.5" fill="#7d7264" stroke="#2a2622" stroke-width="1.5" stroke-linejoin="round" />
<polygon points="337.0,624.6 350.3,624.6 350.3,594.8 344.0,584.6 337.0,590.2" fill="#7d7264" stroke="#2a2622" stroke-width="1.5" stroke-linejoin="round" />
<polygon points="351.0,624.6 364.3,624.6 364.3,569.7 358.0,560.3 351.0,565.9" fill="#3f362e" stroke="#2a2622" stroke-width="1.5" stroke-linejoin="round" />
<polygon points="169.0,624.6 180.2,624.6 180.2,453.1 169.0,453.1" fill="#3f362e" stroke="#2a2622" stroke-width="2" stroke-linejoin="round" />
<polygon points="169.0,624.6 180.2,624.6 216.6,470.6 205.4,470.6" fill="#3f362e" stroke="#2a2622" stroke-width="2" stroke-linejoin="round" />
<polygon points="479.8,624.6 491.0,624.6 491.0,544.1 479.8,544.1" fill="#3f362e" stroke="#2a2622" stroke-width="2" stroke-linejoin="round" />
<polygon points="479.8,544.1 484.0,531.5 486.8,542.0 491.0,535.0 491.0,544.1" fill="#3f362e" stroke="#2a2622" stroke-width="2" stroke-linejoin="round" />
<polygon points="176.0,456.6 190.0,453.8 396.5,610.6 389.5,619.0" fill="#4a3f35" stroke="#2a2622" stroke-width="2" stroke-linejoin="round" />
<polygon points="232.0,623.2 302.0,623.2 309.0,535.0 242.5,526.6" fill="#8a5a3c" stroke="#2a2622" stroke-width="2" stroke-linejoin="round" />
<polygon points="400.0,622.5 442.0,601.5 491.0,620.4 491.0,615.5 442.0,594.5 400.0,617.6" fill="#a3abb0" stroke="#2a2622" stroke-width="2" stroke-linejoin="round" />
<polygon points="200.5,624.6 249.5,624.6 249.5,576.3 200.5,576.3" fill="#7d7264" stroke="#2a2622" stroke-width="2" stroke-linejoin="round" />
<polygon points="183.0,624.6 193.5,598.0 197.0,573.5 253.0,573.5 263.5,605.0 267.0,624.6" fill="#46663d" stroke="#2a2622" stroke-width="2" stroke-linejoin="round" opacity="0.85"/>
<polygon points="319.5,624.6 361.5,624.6 361.5,582.6 319.5,582.6" fill="#7d7264" stroke="#2a2622" stroke-width="2" stroke-linejoin="round" />
<polyline points="319.5,624.6 361.5,582.6" fill="none" stroke="#3f362e" stroke-width="2" stroke-linecap="round"/>
<polygon points="421.0,640.0 484.0,636.5 480.5,616.9 419.6,620.4" fill="#d8d1c2" stroke="#2a2622" stroke-width="2" stroke-linejoin="round" />
<text x="452" y="632" font-family="Arial" font-size="13" fill="#2d2a26" font-weight="bold" text-anchor="middle">СКЛАД</text>
<text x="950" y="140" font-family="Arial" font-size="22" fill="#2d2a26" font-weight="bold" text-anchor="middle">2. Восстановленный амбар — стадии 1 и 2</text>
<polygon points="786.9,640.0 812.1,640.0 812.1,624.6 786.9,624.6" fill="#857f76" stroke="#2a2622" stroke-width="2" stroke-linejoin="round" />
<polygon points="1087.9,640.0 1113.1,640.0 1113.1,624.6 1087.9,624.6" fill="#857f76" stroke="#2a2622" stroke-width="2" stroke-linejoin="round" />
<polygon points="789.0,624.6 1111.0,624.6 1111.0,612.0 789.0,612.0" fill="#7d7264" stroke="#2a2622" stroke-width="2" stroke-linejoin="round" />
<polygon points="791.1,623.2 805.1,623.2 805.1,457.9 791.1,457.9" fill="#7d7264" stroke="#2a2622" stroke-width="1.2" stroke-linejoin="round" />
<polygon points="805.5,623.2 819.5,623.2 819.5,452.3 805.5,452.3" fill="#7d7264" stroke="#2a2622" stroke-width="1.2" stroke-linejoin="round" />
<polygon points="819.8,623.2 833.8,623.2 833.8,446.7 819.8,446.7" fill="#7d7264" stroke="#2a2622" stroke-width="1.2" stroke-linejoin="round" />
<polygon points="834.1,623.2 848.1,623.2 848.1,441.1 834.1,441.1" fill="#7d7264" stroke="#2a2622" stroke-width="1.2" stroke-linejoin="round" />
<polygon points="848.5,623.2 862.5,623.2 862.5,435.5 848.5,435.5" fill="#7d7264" stroke="#2a2622" stroke-width="1.2" stroke-linejoin="round" />
<polygon points="862.9,623.2 876.9,623.2 876.9,429.9 862.9,429.9" fill="#7d7264" stroke="#2a2622" stroke-width="1.2" stroke-linejoin="round" />
<polygon points="877.2,469.2 891.2,469.2 891.2,424.2 877.2,424.2" fill="#7d7264" stroke="#2a2622" stroke-width="1.2" stroke-linejoin="round" />
<polygon points="891.6,469.2 905.6,469.2 905.6,418.6 891.6,418.6" fill="#b98d58" stroke="#2a2622" stroke-width="1.2" stroke-linejoin="round" />
<polygon points="905.9,469.2 919.9,469.2 919.9,413.0 905.9,413.0" fill="#b98d58" stroke="#2a2622" stroke-width="1.2" stroke-linejoin="round" />
<polygon points="920.2,469.2 934.2,469.2 934.2,407.4 920.2,407.4" fill="#7d7264" stroke="#2a2622" stroke-width="1.2" stroke-linejoin="round" />
<polygon points="934.6,469.2 948.6,469.2 948.6,401.8 934.6,401.8" fill="#b98d58" stroke="#2a2622" stroke-width="1.2" stroke-linejoin="round" />
<polygon points="949.0,469.2 963.0,469.2 963.0,400.8 949.0,400.8" fill="#7d7264" stroke="#2a2622" stroke-width="1.2" stroke-linejoin="round" />
<polygon points="963.3,469.2 977.3,469.2 977.3,406.4 963.3,406.4" fill="#b98d58" stroke="#2a2622" stroke-width="1.2" stroke-linejoin="round" />
<polygon points="977.6,469.2 991.6,469.2 991.6,412.1 977.6,412.1" fill="#b98d58" stroke="#2a2622" stroke-width="1.2" stroke-linejoin="round" />
<polygon points="992.0,469.2 1006.0,469.2 1006.0,417.7 992.0,417.7" fill="#b98d58" stroke="#2a2622" stroke-width="1.2" stroke-linejoin="round" />
<polygon points="1006.4,469.2 1020.4,469.2 1020.4,423.3 1006.4,423.3" fill="#b98d58" stroke="#2a2622" stroke-width="1.2" stroke-linejoin="round" />
<polygon points="1020.7,623.2 1034.7,623.2 1034.7,428.9 1020.7,428.9" fill="#b98d58" stroke="#2a2622" stroke-width="1.2" stroke-linejoin="round" />
<polygon points="1035.0,623.2 1049.0,623.2 1049.0,434.5 1035.0,434.5" fill="#7d7264" stroke="#2a2622" stroke-width="1.2" stroke-linejoin="round" />
<polygon points="1049.4,623.2 1063.4,623.2 1063.4,440.1 1049.4,440.1" fill="#7d7264" stroke="#2a2622" stroke-width="1.2" stroke-linejoin="round" />
<polygon points="1063.8,623.2 1077.8,623.2 1077.8,445.8 1063.8,445.8" fill="#7d7264" stroke="#2a2622" stroke-width="1.2" stroke-linejoin="round" />
<polygon points="1078.1,623.2 1092.1,623.2 1092.1,451.4 1078.1,451.4" fill="#7d7264" stroke="#2a2622" stroke-width="1.2" stroke-linejoin="round" />
<polygon points="1092.5,623.2 1106.5,623.2 1106.5,457.0 1092.5,457.0" fill="#b98d58" stroke="#2a2622" stroke-width="1.2" stroke-linejoin="round" />
<polygon points="1106.8,623.2 1120.8,623.2 1120.8,461.5 1106.8,461.5" fill="#7d7264" stroke="#2a2622" stroke-width="1.2" stroke-linejoin="round" />
<polygon points="880.0,610.6 1020.0,610.6 1020.0,472.0 880.0,472.0" fill="#1f1b17" stroke="#2a2622" stroke-width="2" stroke-linejoin="round" />
<polygon points="950.0,610.6 1020.0,610.6 1020.0,472.0 950.0,472.0" fill="#7d7264" stroke="#2a2622" stroke-width="2" stroke-linejoin="round" />
<polygon points="951.4,593.8 1018.6,593.8 1018.6,585.4 951.4,585.4" fill="#b98d58" stroke="#2a2622" stroke-width="1" stroke-linejoin="round" />
<polygon points="951.4,497.2 1018.6,497.2 1018.6,488.8 951.4,488.8" fill="#b98d58" stroke="#2a2622" stroke-width="1" stroke-linejoin="round" />
<polyline points="957.0,584.0 1013.0,498.6" fill="none" stroke="#b98d58" stroke-width="6" stroke-linecap="round"/>
<polygon points="880.0,610.6 932.5,619.0 932.5,479.0 880.0,472.0" fill="#7d7264" stroke="#2a2622" stroke-width="2" stroke-linejoin="round" />
<polygon points="909.4,450.3 990.6,450.3 990.6,429.3 909.4,429.3" fill="#d8d1c2" stroke="#2a2622" stroke-width="2" stroke-linejoin="round" />
<text x="950" y="444" font-family="Arial" font-size="16" fill="#2d2a26" font-weight="bold" text-anchor="middle">СКЛАД</text>
<polygon points="776.4,456.6 950.0,382.4 1123.6,456.6 1123.6,451.0 950.0,375.4 776.4,451.0" fill="#a3abb0" stroke="#2a2622" stroke-width="2" stroke-linejoin="round" />
<polyline points="824.0,433.5 880.0,409.0" fill="none" stroke="#8a5a3c" stroke-width="5" stroke-linecap="round"/>
<path d="M 768.0 454.5 Q 859.0 430.0 950 372.6" fill="none" stroke="#46663d" stroke-width="5" stroke-dasharray="10 6"/>
<text x="796" y="392" font-family="Arial" font-size="13" fill="#46663d" font-weight="bold" text-anchor="start">стадия 1: каркас + тент</text>
<text x="1013" y="392" font-family="Arial" font-size="13" fill="#2d2a26" font-weight="bold" text-anchor="start">стадия 2: стены, ворота, профлист</text>
<text x="1540" y="140" font-family="Arial" font-size="22" fill="#2d2a26" font-weight="bold" text-anchor="middle">3. Логистический комплекс — стадия 3</text>
<polygon points="1372.0,640.0 1708.0,640.0 1708.0,610.6 1372.0,610.6" fill="#857f76" stroke="#2a2622" stroke-width="2" stroke-linejoin="round" />
<polygon points="1449.0,640.0 1631.0,640.0 1631.0,620.4 1449.0,620.4" fill="#9a968e" stroke="#2a2622" stroke-width="2" stroke-linejoin="round" />
<polygon points="1449.0,640.0 1631.0,640.0 1631.0,630.2 1449.0,630.2" fill="#9a968e" stroke="#2a2622" stroke-width="2" stroke-linejoin="round" />
<polygon points="1379.0,610.6 1701.0,610.6 1701.0,538.5 1379.0,538.5" fill="url(#brick)" stroke="#2a2622" stroke-width="2" stroke-linejoin="round" />
<polygon points="1376.9,610.6 1403.5,610.6 1403.5,433.5 1376.9,433.5" fill="url(#brick)" stroke="#2a2622" stroke-width="2" stroke-linejoin="round" />
<polygon points="1676.5,610.6 1703.1,610.6 1703.1,433.5 1676.5,433.5" fill="url(#brick)" stroke="#2a2622" stroke-width="2" stroke-linejoin="round" />
<polygon points="1403.5,534.3 1676.5,534.3 1676.5,433.5 1403.5,433.5" fill="#8a3d28" stroke="#2a2622" stroke-width="2" stroke-linejoin="round" />
<polyline points="1403.5,534.3 1676.5,534.3" fill="none" stroke="#5d2a1b" stroke-width="1" stroke-linecap="round"/>
<polyline points="1403.5,525.2 1676.5,525.2" fill="none" stroke="#5d2a1b" stroke-width="1" stroke-linecap="round"/>
<polyline points="1403.5,516.1 1676.5,516.1" fill="none" stroke="#5d2a1b" stroke-width="1" stroke-linecap="round"/>
<polyline points="1403.5,507.0 1676.5,507.0" fill="none" stroke="#5d2a1b" stroke-width="1" stroke-linecap="round"/>
<polyline points="1403.5,497.9 1676.5,497.9" fill="none" stroke="#5d2a1b" stroke-width="1" stroke-linecap="round"/>
<polyline points="1403.5,488.8 1676.5,488.8" fill="none" stroke="#5d2a1b" stroke-width="1" stroke-linecap="round"/>
<polyline points="1403.5,479.7 1676.5,479.7" fill="none" stroke="#5d2a1b" stroke-width="1" stroke-linecap="round"/>
<polyline points="1403.5,470.6 1676.5,470.6" fill="none" stroke="#5d2a1b" stroke-width="1" stroke-linecap="round"/>
<polyline points="1403.5,461.5 1676.5,461.5" fill="none" stroke="#5d2a1b" stroke-width="1" stroke-linecap="round"/>
<polyline points="1403.5,452.4 1676.5,452.4" fill="none" stroke="#5d2a1b" stroke-width="1" stroke-linecap="round"/>
<polyline points="1403.5,443.3 1676.5,443.3" fill="none" stroke="#5d2a1b" stroke-width="1" stroke-linecap="round"/>
<polygon points="1379.0,433.5 1701.0,433.5 1540.0,363.5" fill="#8a3d28" stroke="#2a2622" stroke-width="2" stroke-linejoin="round" />
<polygon points="1442.0,610.6 1638.0,610.6 1638.0,444.0 1442.0,444.0" fill="url(#brick)" stroke="#2a2622" stroke-width="2" stroke-linejoin="round" />
<polygon points="1463.0,610.6 1617.0,610.6 1617.0,447.5 1463.0,447.5" fill="#2a2723" stroke="#2a2622" stroke-width="2" stroke-linejoin="round" />
<polygon points="1429.4,610.6 1433.6,610.6 1433.6,456.6 1429.4,456.6" fill="#376690" stroke="#2a2622" stroke-width="1" stroke-linejoin="round" />
<polygon points="1499.4,610.6 1503.6,610.6 1503.6,456.6 1499.4,456.6" fill="#376690" stroke="#2a2622" stroke-width="1" stroke-linejoin="round" />
<polygon points="1569.4,610.6 1573.6,610.6 1573.6,456.6 1569.4,456.6" fill="#376690" stroke="#2a2622" stroke-width="1" stroke-linejoin="round" />
<polygon points="1463.0,572.1 1617.0,572.1 1617.0,565.8 1463.0,565.8" fill="#c0621f" stroke="#2a2622" stroke-width="1" stroke-linejoin="round" />
<polygon points="1463.0,519.6 1617.0,519.6 1617.0,513.3 1463.0,513.3" fill="#c0621f" stroke="#2a2622" stroke-width="1" stroke-linejoin="round" />
<polygon points="1465.1,491.6 1614.9,491.6 1614.9,447.5 1465.1,447.5" fill="#4f6e49" stroke="#2a2622" stroke-width="2" stroke-linejoin="round" />
<polyline points="1465.1,491.6 1614.9,491.6" fill="none" stroke="#2f432c" stroke-width="1.5" stroke-linecap="round"/>
<polyline points="1465.1,484.2 1614.9,484.2" fill="none" stroke="#2f432c" stroke-width="1.5" stroke-linecap="round"/>
<polyline points="1465.1,476.9 1614.9,476.9" fill="none" stroke="#2f432c" stroke-width="1.5" stroke-linecap="round"/>
<polyline points="1465.1,469.5 1614.9,469.5" fill="none" stroke="#2f432c" stroke-width="1.5" stroke-linecap="round"/>
<polyline points="1465.1,462.2 1614.9,462.2" fill="none" stroke="#2f432c" stroke-width="1.5" stroke-linecap="round"/>
<polyline points="1465.1,454.9 1614.9,454.9" fill="none" stroke="#2f432c" stroke-width="1.5" stroke-linecap="round"/>
<polygon points="1452.5,447.5 1627.5,447.5 1627.5,426.5 1452.5,426.5" fill="#4f6e49" stroke="#2a2622" stroke-width="2" stroke-linejoin="round" />
<polygon points="1485.4,412.5 1594.6,412.5 1594.6,388.7 1485.4,388.7" fill="#d8d1c2" stroke="#2a2622" stroke-width="2" stroke-linejoin="round" />
<text x="1540" y="405" font-family="Arial" font-size="16" fill="#2d2a26" font-weight="bold" text-anchor="middle">СКЛАД №1</text>
<polygon points="1356.6,435.6 1540.0,351.6 1723.4,435.6 1723.4,430.0 1540.0,346.0 1356.6,430.0" fill="#bcc4c8" stroke="#2a2622" stroke-width="2" stroke-linejoin="round" />
<polygon points="1530.9,349.5 1549.1,349.5 1549.1,332.0 1530.9,332.0" fill="#a3abb0" stroke="#2a2622" stroke-width="2" stroke-linejoin="round" />
<polygon points="1701.0,640.0 1802.5,640.0 1802.5,633.0 1701.0,633.0" fill="#9a968e" stroke="#2a2622" stroke-width="2" stroke-linejoin="round" />
<polygon points="1701.0,432.8 1806.0,469.2 1806.0,463.6 1701.0,427.2" fill="#a3abb0" stroke="#2a2622" stroke-width="2" stroke-linejoin="round" />
<polygon points="1775.9,631.6 1787.1,631.6 1787.1,435.6 1775.9,435.6" fill="#d1a02a" stroke="#2a2622" stroke-width="2" stroke-linejoin="round" />
<polygon points="1708.0,458.7 1786.4,458.7 1786.4,447.5 1708.0,447.5" fill="#d1a02a" stroke="#2a2622" stroke-width="2" stroke-linejoin="round" />
<polyline points="1746.5,465.0 1746.5,538.5" fill="none" stroke="#555" stroke-width="3" stroke-linecap="round"/>
<polygon points="1729.0,573.5 1764.0,573.5 1764.0,538.5 1729.0,538.5" fill="#b98d58" stroke="#2a2622" stroke-width="2" stroke-linejoin="round" />
<polygon points="1718.5,640.0 1774.5,640.0 1774.5,630.2 1718.5,630.2" fill="#b98d58" stroke="#2a2622" stroke-width="2" stroke-linejoin="round" />
<circle cx="1782" cy="542" r="12" fill="#2b2d30" stroke="#111" stroke-width="2" stroke-dasharray="3 2"/>
<circle cx="1782" cy="558" r="4" fill="#80868c" stroke="#111" stroke-width="2"/>
<text x="1750" y="680" font-family="Arial" font-size="13" fill="#2d2a26" font-weight="normal" text-anchor="middle">подъёмник: шестерни 2.83 : 1, ящик ↑ 0.45 м</text>
<text x="40" y="735" font-family="Arial" font-size="17" fill="#2d2a26" font-weight="normal" text-anchor="start">Стадия 0: треснувшая плита, обломанные стойки, рухнувшая балка конька, ржавые листы, разбитые ящики, рваный тент, табличка «СКЛАД» на земле.</text>
<text x="40" y="763" font-family="Arial" font-size="17" fill="#2d2a26" font-weight="normal" text-anchor="start">Стадии 1–2 — одно состояние «амбар»: общий каркас на каменных опорах с полом и припасами; на стадии 1 поверх стропил натянут тент на растяжках,</text>
<text x="40" y="791" font-family="Arial" font-size="17" fill="#2d2a26" font-weight="normal" text-anchor="start">на стадии 2 — дощатые стены с окнами, ворота с Z-обвязкой (левая створка приоткрыта), кровля из профлиста с ржавым листом, вывеска.</text>
<text x="40" y="819" font-family="Arial" font-size="17" fill="#2d2a26" font-weight="normal" text-anchor="start">Стадия 3: кирпичный цоколь и пилястры, красная обшивка внахлёст, оцинкованная кровля со световыми листами, водостоки, рулонные ворота,</text>
<text x="40" y="847" font-family="Arial" font-size="17" fill="#2d2a26" font-weight="normal" text-anchor="start">стеллаж с ящиками внутри, сортировочный навес с тремя ящиками (камень, металл, дрова) и поворотная укосина с ручной лебёдкой на шестернях.</text>
<rect x="40" y="900" width="40" height="40" fill="#7d7264" stroke="#2a2622" stroke-width="2"/>
<text x="88" y="926" font-family="Arial" font-size="14" fill="#2d2a26" font-weight="normal" text-anchor="start">доски старые</text>
<rect x="170" y="900" width="40" height="40" fill="#3f362e" stroke="#2a2622" stroke-width="2"/>
<text x="218" y="926" font-family="Arial" font-size="14" fill="#2d2a26" font-weight="normal" text-anchor="start">обгоревшие</text>
<rect x="300" y="900" width="40" height="40" fill="#b98d58" stroke="#2a2622" stroke-width="2"/>
<text x="348" y="926" font-family="Arial" font-size="14" fill="#2d2a26" font-weight="normal" text-anchor="start">свежая сосна</text>
<rect x="430" y="900" width="40" height="40" fill="#8a5a3c" stroke="#2a2622" stroke-width="2"/>
<text x="478" y="926" font-family="Arial" font-size="14" fill="#2d2a26" font-weight="normal" text-anchor="start">ржавый лист</text>
<rect x="560" y="900" width="40" height="40" fill="#a3abb0" stroke="#2a2622" stroke-width="2"/>
<text x="608" y="926" font-family="Arial" font-size="14" fill="#2d2a26" font-weight="normal" text-anchor="start">оцинковка</text>
<rect x="690" y="900" width="40" height="40" fill="#9a968e" stroke="#2a2622" stroke-width="2"/>
<text x="738" y="926" font-family="Arial" font-size="14" fill="#2d2a26" font-weight="normal" text-anchor="start">бетон</text>
<rect x="820" y="900" width="40" height="40" fill="#857f76" stroke="#2a2622" stroke-width="2"/>
<text x="868" y="926" font-family="Arial" font-size="14" fill="#2d2a26" font-weight="normal" text-anchor="start">бут</text>
<rect x="950" y="900" width="40" height="40" fill="#9a4a2c" stroke="#2a2622" stroke-width="2"/>
<text x="998" y="926" font-family="Arial" font-size="14" fill="#2d2a26" font-weight="normal" text-anchor="start">кирпич</text>
<rect x="1080" y="900" width="40" height="40" fill="#8a3d28" stroke="#2a2622" stroke-width="2"/>
<text x="1128" y="926" font-family="Arial" font-size="14" fill="#2d2a26" font-weight="normal" text-anchor="start">обшивка</text>
<rect x="1210" y="900" width="40" height="40" fill="#d8d1c2" stroke="#2a2622" stroke-width="2"/>
<text x="1258" y="926" font-family="Arial" font-size="14" fill="#2d2a26" font-weight="normal" text-anchor="start">отделка</text>
<rect x="1340" y="900" width="40" height="40" fill="#46663d" stroke="#2a2622" stroke-width="2"/>
<text x="1388" y="926" font-family="Arial" font-size="14" fill="#2d2a26" font-weight="normal" text-anchor="start">тент</text>
<rect x="1470" y="900" width="40" height="40" fill="#4f6e49" stroke="#2a2622" stroke-width="2"/>
<text x="1518" y="926" font-family="Arial" font-size="14" fill="#2d2a26" font-weight="normal" text-anchor="start">ворота</text>
<rect x="1600" y="900" width="40" height="40" fill="#d1a02a" stroke="#2a2622" stroke-width="2"/>
<text x="1648" y="926" font-family="Arial" font-size="14" fill="#2d2a26" font-weight="normal" text-anchor="start">кран</text>
<rect x="1730" y="900" width="40" height="40" fill="#376690" stroke="#2a2622" stroke-width="2"/>
<text x="1778" y="926" font-family="Arial" font-size="14" fill="#2d2a26" font-weight="normal" text-anchor="start">стеллаж</text>
</svg>